<?xml version="1.0" encoding="UTF-8" standalone="no"?>
<!-- Created with Inkscape (http://www.inkscape.org/) -->

<svg
   width="79.375008mm"
   height="84.87999mm"
   viewBox="0 0 79.375007 84.879989"
   version="1.1"
   id="svg5"
   inkscape:version="1.2.2 (b0a8486541, 2022-12-01)"
   sodipodi:docname="bush.svg"
   xmlns:inkscape="http://www.inkscape.org/namespaces/inkscape"
   xmlns:sodipodi="http://sodipodi.sourceforge.net/DTD/sodipodi-0.dtd"
   xmlns="http://www.w3.org/2000/svg"
   xmlns:svg="http://www.w3.org/2000/svg">
  <sodipodi:namedview
     id="namedview7"
     pagecolor="#505050"
     bordercolor="#eeeeee"
     borderopacity="1"
     inkscape:showpageshadow="0"
     inkscape:pageopacity="0"
     inkscape:pagecheckerboard="0"
     inkscape:deskcolor="#505050"
     inkscape:document-units="mm"
     showgrid="false"
     inkscape:zoom="1.8129333"
     inkscape:cx="146.72354"
     inkscape:cy="217.60315"
     inkscape:window-width="3840"
     inkscape:window-height="2051"
     inkscape:window-x="1920"
     inkscape:window-y="0"
     inkscape:window-maximized="1"
     inkscape:current-layer="layer1" />
  <defs
     id="defs2" />
  <g
     inkscape:label="Layer 1"
     inkscape:groupmode="layer"
     id="layer1"
     transform="translate(-54.191313,-77.415657)">
    <path
       id="path788"
       style="fill:#3cca3f;fill-opacity:1;stroke:#000000;stroke-width:0.850013;stroke-dasharray:none;stroke-opacity:1"
       d="M 91.722429,77.840664 A 12.324661,24.5552 0 0 0 79.845378,95.847536 24.5552,12.324661 40.380049 0 0 57.820189,92.824135 24.5552,12.324661 40.380049 0 0 68.540678,118.1209 a 24.5552,12.324661 40.380049 0 0 2.583266,2.04914 12.324661,24.5552 53.99451 0 0 -2.601715,1.76229 12.324661,24.5552 53.99451 0 0 -12.618954,24.40508 12.324661,24.5552 53.99451 0 0 26.509117,-4.04423 24.5552,12.324661 79.27368 0 0 16.163315,19.46827 24.5552,12.324661 79.27368 0 0 8.327853,-15.84265 24.5552,12.324661 36.00549 0 0 18.19664,-0.62638 24.5552,12.324661 36.00549 0 0 -4.99786,-17.47976 12.324661,24.5552 84.795548 0 0 13.01341,-12.37825 12.324661,24.5552 84.795548 0 0 -12.3901,-9.3443 12.324661,24.5552 49.619951 0 0 1.47457,-14.53894 12.324661,24.5552 49.619951 0 0 -19.13004,1.268134 12.324661,24.5552 0 0 0 -11.347751,-14.97864 z" />
    <ellipse
       style="fill:#32a635;fill-opacity:1;stroke:none;stroke-width:0.503962;stroke-dasharray:none;stroke-opacity:1"
       id="ellipse8454"
       cx="93.320274"
       cy="108.03912"
       rx="6.9295473"
       ry="15.351754" />
    <ellipse
       style="fill:#32a635;fill-opacity:1;stroke:none;stroke-width:0.505344;stroke-dasharray:none;stroke-opacity:1"
       id="ellipse8456"
       cx="150.28624"
       cy="-11.888247"
       rx="7.3896279"
       ry="14.474989"
       transform="matrix(0.60751902,0.79430513,-0.72656672,0.68709592,0,0)" />
    <ellipse
       style="fill:#32a635;fill-opacity:1;stroke:none;stroke-width:0.504008;stroke-dasharray:none;stroke-opacity:1"
       id="ellipse8458"
       cx="127.37157"
       cy="-92.918617"
       rx="7.6992359"
       ry="13.819597"
       transform="matrix(0.08164174,0.99666174,-0.99491007,0.10076684,0,0)" />
    <ellipse
       style="fill:#32a635;fill-opacity:1;stroke:none;stroke-width:0.505245;stroke-dasharray:none;stroke-opacity:1"
       id="ellipse8460"
       cx="34.622265"
       cy="-154.09799"
       rx="7.4463573"
       ry="14.359123"
       transform="matrix(-0.54706249,0.83709177,-0.77780871,-0.62850108,0,0)" />
    <ellipse
       style="fill:#32a635;fill-opacity:1;stroke:none;stroke-width:0.504152;stroke-dasharray:none;stroke-opacity:1"
       id="ellipse8462"
       cx="-70.230766"
       cy="-149.34807"
       rx="6.9578657"
       ry="15.300825"
       transform="matrix(-0.97852855,0.20611131,-0.16793715,-0.9857977,0,0)" />
    <ellipse
       style="fill:#32a635;fill-opacity:1;stroke:none;stroke-width:0.505344;stroke-dasharray:none;stroke-opacity:1"
       id="ellipse8464"
       cx="23.253845"
       cy="136.12355"
       rx="7.3896279"
       ry="14.474989"
       transform="matrix(-0.60751903,0.79430512,0.72656671,0.68709593,0,0)" />
    <ellipse
       style="fill:#32a635;fill-opacity:1;stroke:none;stroke-width:0.505245;stroke-dasharray:none;stroke-opacity:1"
       id="ellipse8466"
       cx="152.16788"
       cy="1.4196203"
       rx="7.4463573"
       ry="14.359123"
       transform="matrix(0.5470625,0.83709176,0.77780871,-0.62850108,0,0)" />
    <ellipse
       style="fill:#247526;fill-opacity:1;stroke:none;stroke-width:0.222651;stroke-dasharray:none;stroke-opacity:1"
       id="ellipse8470"
       cx="94.065109"
       cy="114.12688"
       rx="3.4257305"
       ry="6.0612988" />
    <ellipse
       style="fill:#247526;fill-opacity:1;stroke:none;stroke-width:0.223416;stroke-dasharray:none;stroke-opacity:1"
       id="ellipse8472"
       cx="151.76807"
       cy="9.566102"
       rx="3.2087977"
       ry="6.5155544"
       transform="matrix(0.69165335,0.72222964,-0.7979776,0.60268711,0,0)" />
    <ellipse
       style="fill:#247526;fill-opacity:1;stroke:none;stroke-width:0.222677;stroke-dasharray:none;stroke-opacity:1"
       id="ellipse8474"
       cx="125.50409"
       cy="-86.249031"
       rx="3.0456185"
       ry="6.8193617"
       transform="matrix(0.10203113,0.99478121,-0.9967444,0.08062634,0,0)" />
    <ellipse
       style="fill:#247526;fill-opacity:1;stroke:none;stroke-width:0.223361;stroke-dasharray:none;stroke-opacity:1"
       id="ellipse8476"
       cx="49.064293"
       cy="-153.40276"
       rx="3.1800177"
       ry="6.5713253"
       transform="matrix(-0.63328557,0.7739182,-0.84022598,-0.5422364,0,0)" />
    <ellipse
       style="fill:#247526;fill-opacity:1;stroke:none;stroke-width:0.222757;stroke-dasharray:none;stroke-opacity:1"
       id="ellipse8478"
       cx="-66.448593"
       cy="-137.94234"
       rx="3.4131682"
       ry="6.089366"
       transform="matrix(-0.98614377,0.16589294,-0.20861133,-0.97799863,0,0)" />
    <ellipse
       style="fill:#247526;fill-opacity:1;stroke:none;stroke-width:0.223416;stroke-dasharray:none;stroke-opacity:1"
       id="ellipse8480"
       cx="38.435188"
       cy="145.89983"
       rx="3.2087977"
       ry="6.5155544"
       transform="matrix(-0.69165336,0.72222963,0.79797759,0.60268712,0,0)" />
    <ellipse
       style="fill:#247526;fill-opacity:1;stroke:none;stroke-width:0.223361;stroke-dasharray:none;stroke-opacity:1"
       id="ellipse8482"
       cx="151.57439"
       cy="-7.5689087"
       rx="3.1800179"
       ry="6.5713253"
       transform="matrix(0.63328558,0.7739182,0.84022598,-0.5422364,0,0)" />
  </g>
</svg>
