<?xml version="1.0" encoding="UTF-8" standalone="no"?>
<!-- Created with Inkscape (http://www.inkscape.org/) -->

<svg
   width="93.380943mm"
   height="99.857307mm"
   viewBox="0 0 93.380943 99.857307"
   version="1.1"
   id="svg5"
   inkscape:version="1.2.2 (b0a8486541, 2022-12-01)"
   sodipodi:docname="bush.svg"
   xmlns:inkscape="http://www.inkscape.org/namespaces/inkscape"
   xmlns:sodipodi="http://sodipodi.sourceforge.net/DTD/sodipodi-0.dtd"
   xmlns="http://www.w3.org/2000/svg"
   xmlns:svg="http://www.w3.org/2000/svg">
  <sodipodi:namedview
     id="namedview7"
     pagecolor="#505050"
     bordercolor="#eeeeee"
     borderopacity="1"
     inkscape:showpageshadow="0"
     inkscape:pageopacity="0"
     inkscape:pagecheckerboard="0"
     inkscape:deskcolor="#505050"
     inkscape:document-units="mm"
     showgrid="false"
     inkscape:zoom="1.8129333"
     inkscape:cx="146.17195"
     inkscape:cy="217.05156"
     inkscape:window-width="3840"
     inkscape:window-height="2051"
     inkscape:window-x="1920"
     inkscape:window-y="0"
     inkscape:window-maximized="1"
     inkscape:current-layer="layer1" />
  <defs
     id="defs2" />
  <g
     inkscape:label="Layer 1"
     inkscape:groupmode="layer"
     id="layer1"
     transform="translate(-54.191315,-77.415658)">
    <path
       id="path788"
       style="fill:#3cca3f;fill-opacity:1;stroke:#000000;stroke-width:1;stroke-dasharray:none;stroke-opacity:1"
       d="m 98.344902,77.915658 a 14.499383,28.888035 0 0 0 -13.972791,21.184236 28.888035,14.499383 40.380049 0 0 -25.911597,-3.556889 28.888035,14.499383 40.380049 0 0 12.61215,29.760455 28.888035,14.499383 40.380049 0 0 3.039091,2.41071 14.499383,28.888035 53.99451 0 0 -3.060795,2.07326 14.499383,28.888035 53.99451 0 0 -14.845605,28.71142 14.499383,28.888035 53.99451 0 0 31.186727,-4.75785 28.888035,14.499383 79.27368 0 0 19.015378,22.90351 28.888035,14.499383 79.27368 0 0 9.79733,-18.63813 28.888035,14.499383 36.00549 0 0 21.40748,-0.73691 28.888035,14.499383 36.00549 0 0 -5.87974,-20.56412 14.499383,28.888035 84.795548 0 0 15.30966,-14.56242 14.499383,28.888035 84.795548 0 0 -14.57637,-10.99313 14.499383,28.888035 49.619951 0 0 1.73477,-17.104378 14.499383,28.888035 49.619951 0 0 -22.5056,1.491899 14.499383,28.888035 0 0 0 -13.350088,-17.621663 z" />
    <ellipse
       style="fill:#32a635;fill-opacity:1;stroke:none;stroke-width:0.592887;stroke-dasharray:none;stroke-opacity:1"
       id="ellipse8454"
       cx="100.22469"
       cy="113.44271"
       rx="8.1522856"
       ry="18.060616" />
    <ellipse
       style="fill:#32a635;fill-opacity:1;stroke:none;stroke-width:0.594513;stroke-dasharray:none;stroke-opacity:1"
       id="ellipse8456"
       cx="160.2189"
       cy="-14.693351"
       rx="8.6935492"
       ry="17.029142"
       transform="matrix(0.60751902,0.79430513,-0.72656672,0.68709592,0,0)" />
    <ellipse
       style="fill:#32a635;fill-opacity:1;stroke:none;stroke-width:0.592942;stroke-dasharray:none;stroke-opacity:1"
       id="ellipse8458"
       cx="135.28973"
       cy="-100.89777"
       rx="9.0577879"
       ry="16.258104"
       transform="matrix(0.08164174,0.99666174,-0.99491007,0.10076684,0,0)" />
    <ellipse
       style="fill:#32a635;fill-opacity:1;stroke:none;stroke-width:0.594397;stroke-dasharray:none;stroke-opacity:1"
       id="ellipse8460"
       cx="36.092758"
       cy="-165.73267"
       rx="8.7602882"
       ry="16.892832"
       transform="matrix(-0.54706249,0.83709177,-0.77780871,-0.62850108,0,0)" />
    <ellipse
       style="fill:#32a635;fill-opacity:1;stroke:none;stroke-width:0.593111;stroke-dasharray:none;stroke-opacity:1"
       id="ellipse8462"
       cx="-75.485443"
       cy="-160.35158"
       rx="8.1856012"
       ry="18.0007"
       transform="matrix(-0.97852855,0.20611131,-0.16793715,-0.9857977,0,0)" />
    <ellipse
       style="fill:#32a635;fill-opacity:1;stroke:none;stroke-width:0.594513;stroke-dasharray:none;stroke-opacity:1"
       id="ellipse8464"
       cx="23.983734"
       cy="144.16151"
       rx="8.6935492"
       ry="17.029142"
       transform="matrix(-0.60751903,0.79430512,0.72656671,0.68709593,0,0)" />
    <ellipse
       style="fill:#32a635;fill-opacity:1;stroke:none;stroke-width:0.594397;stroke-dasharray:none;stroke-opacity:1"
       id="ellipse8466"
       cx="162.29861"
       cy="1.1359479"
       rx="8.7602882"
       ry="16.892832"
       transform="matrix(0.5470625,0.83709176,0.77780871,-0.62850108,0,0)" />
    <ellipse
       style="fill:#247526;fill-opacity:1;stroke:none;stroke-width:0.261939;stroke-dasharray:none;stroke-opacity:1"
       id="ellipse8470"
       cx="101.10095"
       cy="120.60468"
       rx="4.0302105"
       ry="7.1308322" />
    <ellipse
       style="fill:#247526;fill-opacity:1;stroke:none;stroke-width:0.262838;stroke-dasharray:none;stroke-opacity:1"
       id="ellipse8472"
       cx="161.76988"
       cy="8.6945763"
       rx="3.7749991"
       ry="7.6652427"
       transform="matrix(0.69165335,0.72222964,-0.7979776,0.60268711,0,0)" />
    <ellipse
       style="fill:#247526;fill-opacity:1;stroke:none;stroke-width:0.261969;stroke-dasharray:none;stroke-opacity:1"
       id="ellipse8474"
       cx="133.25961"
       cy="-93.347504"
       rx="3.5830266"
       ry="8.0226574"
       transform="matrix(0.10203113,0.99478121,-0.9967444,0.08062634,0,0)" />
    <ellipse
       style="fill:#247526;fill-opacity:1;stroke:none;stroke-width:0.262774;stroke-dasharray:none;stroke-opacity:1"
       id="ellipse8476"
       cx="51.388969"
       cy="-164.31746"
       rx="3.7411411"
       ry="7.7308545"
       transform="matrix(-0.63328557,0.7739182,-0.84022598,-0.5422364,0,0)" />
    <ellipse
       style="fill:#247526;fill-opacity:1;stroke:none;stroke-width:0.262063;stroke-dasharray:none;stroke-opacity:1"
       id="ellipse8478"
       cx="-71.665329"
       cy="-147.21117"
       rx="4.0154314"
       ry="7.1638522"
       transform="matrix(-0.98614377,0.16589294,-0.20861133,-0.97799863,0,0)" />
    <ellipse
       style="fill:#247526;fill-opacity:1;stroke:none;stroke-width:0.262838;stroke-dasharray:none;stroke-opacity:1"
       id="ellipse8480"
       cx="40.044353"
       cy="155.17761"
       rx="3.7749991"
       ry="7.6652427"
       transform="matrix(-0.69165336,0.72222963,0.79797759,0.60268712,0,0)" />
    <ellipse
       style="fill:#247526;fill-opacity:1;stroke:none;stroke-width:0.262774;stroke-dasharray:none;stroke-opacity:1"
       id="ellipse8482"
       cx="161.5511"
       cy="-7.6460352"
       rx="3.7411411"
       ry="7.7308545"
       transform="matrix(0.63328558,0.7739182,0.84022598,-0.5422364,0,0)" />
  </g>
</svg>
